HIERARCHY
ROOT Hips
{
  OFFSET 1.44925e-005 102.336 -0.101585
  CHANNELS 6 Xposition Yposition Zposition Zrotation Xrotation Yrotation
  JOINT LeftUpLeg
  {
    OFFSET 8.9458 -8.66707 0.101652
    CHANNELS 3 Zrotation Xrotation Yrotation
    JOINT LeftLeg
    {
      OFFSET 0 -44.4227 1.3727
      CHANNELS 3 Zrotation Xrotation Yrotation
      JOINT LeftFoot
      {
        OFFSET -0.253549 -42.0924 -1.46059
        CHANNELS 3 Zrotation Xrotation Yrotation
        JOINT LeftToes
        {
          OFFSET -0.04 -4.41509 8.4991
          CHANNELS 3 Zrotation Xrotation Yrotation
          End Site
          {
            OFFSET 0.08 -0.047448 9.77979
          }
        }
      }
    }
  }
  JOINT Spine
  {
    OFFSET 0 11.8905 0
    CHANNELS 3 Zrotation Xrotation Yrotation
    JOINT Spine1
    {
      OFFSET 0 25.6574 0.127663
      CHANNELS 3 Zrotation Xrotation Yrotation
      JOINT RightShoulder
      {
        OFFSET -8.99 -0.362252 -0.22
        CHANNELS 3 Zrotation Xrotation Yrotation
        JOINT RightArm
        {
          OFFSET -10.2827 -0.00338 0.322123
          CHANNELS 3 Zrotation Xrotation Yrotation
          JOINT RightForeArm
          {
            OFFSET -26.364 0.099144 -1.42434
            CHANNELS 3 Zrotation Xrotation Yrotation
            JOINT RightHand
            {
              OFFSET -22.0324 0.085362 1.02216
              CHANNELS 3 Zrotation Xrotation Yrotation
              End Site
              {
                OFFSET -13.3284 -0.6 1.50291
              }
            }
          }
        }
      }
      JOINT LeftShoulder1
      {
        OFFSET 8.99 -0.362252 -0.22
        CHANNELS 3 Zrotation Xrotation Yrotation
        JOINT LeftArm
        {
          OFFSET 10.2827 -0.00337999 0.322123
          CHANNELS 3 Zrotation Xrotation Yrotation
          JOINT LeftForeArm
          {
            OFFSET 26.2597 0.099144 -1.42434
            CHANNELS 3 Zrotation Xrotation Yrotation
            JOINT LeftHand
            {
              OFFSET 22.0902 0.085362 1.02216
              CHANNELS 3 Zrotation Xrotation Yrotation
              End Site
              {
                OFFSET 13.419 -0.6 1.50291
              }
            }
          }
        }
      }
      JOINT Head
      {
        OFFSET 0 8.73416 0.011341
        CHANNELS 3 Zrotation Xrotation Yrotation
        End Site
        {
          OFFSET -0.29 12.7742 2.51395
        }
      }
    }
  }
  JOINT RightUpLeg
  {
    OFFSET -8.9458 -8.66707 0.101652
    CHANNELS 3 Zrotation Xrotation Yrotation
    JOINT RightLeg
    {
      OFFSET 0 -44.4227 1.3727
      CHANNELS 3 Zrotation Xrotation Yrotation
      JOINT RightFoot
      {
        OFFSET 0.253549 -42.0924 -1.46059
        CHANNELS 3 Zrotation Xrotation Yrotation
        JOINT RightToes
        {
          OFFSET 0.04 -4.41509 8.4991
          CHANNELS 3 Zrotation Xrotation Yrotation
          End Site
          {
            OFFSET -0.08 -0.137448 9.77979
          }
        }
      }
    }
  }
}
MOTION
Frames:	8
Frame Time:	0.0333333
105.074 99.8741 0.630991 -8.11 -5.37031 -82.5934 -4.50762 9.89694 4.94089 -0.423957 17.5536 28.3897 -9.85596 -21.7619 -1.13487 -1.33455e-009 8.75224e-006 -1.47026e-008 -1.33443 14.4428 -0.209912 -3.99489 0.499947 0.353502 36.0519 1.84857 0.353697 43.6092 -26.1997 16.4007 8.73985 37.7663 5.79441 -6.53898 9.63725 -0.206241 -45.5272 3.56516 -3.31196 -22.7996 -10.5617 1.16252 -0.82405 28.4272 -20.7958 5.82328 9.61819 -0.917488 -0.0609615 -7.10587 -6.8415 -7.45087 -13.0931 -4.5886 -1.3486 16.2829 -5.65472 6.81538 0.205095 -0.588948 0.0462048 0.00053089 0.662642 
105.3 99.8763 0.71647 -8.14937 -5.44162 -82.7908 -4.69989 9.78195 4.86526 -0.474169 17.6042 28.6601 -9.77061 -21.6778 -1.11693 -1.33455e-009 8.75224e-006 -1.47026e-008 -1.5384 14.5165 -0.156192 -3.82337 0.445629 0.346909 35.9747 1.84857 0.352685 43.5038 -25.4478 16.3876 8.66799 37.9576 6.09461 -6.16732 9.64942 -0.107239 -45.6008 3.57871 -3.3269 -22.7068 -11.1158 1.13026 -1.00859 28.876 -20.3802 5.82328 9.61819 -0.917488 -0.371542 -6.99029 -6.70878 -7.58665 -12.9062 -4.77024 -1.36211 15.6888 -5.44843 7.1149 0.374327 -0.619064 0.0462048 0.00053089 0.662642 
105.644 99.9172 0.831862 -8.26284 -5.50303 -83.0757 -4.91216 9.72376 4.76364 -0.564777 17.5413 29.0297 -9.59907 -21.4702 -1.07803 -1.33455e-009 8.75224e-006 -1.47026e-008 -1.91728 14.5466 -0.0640814 -3.39816 0.463396 0.313323 36.0099 1.84857 0.344783 43.3341 -24.5963 16.3904 8.50436 38.6579 6.41951 -5.50757 9.68134 -0.15722 -45.5633 3.57516 -3.32826 -22.6642 -12.8078 0.891746 -1.71751 30.3955 -18.9667 5.82328 9.61819 -0.917488 -0.904828 -6.78603 -6.46711 -7.68876 -12.5825 -4.90502 -1.42106 14.8442 -5.30043 7.72062 0.402522 -0.66308 0.0462048 0.00053089 0.662642 
105.87 99.9754 0.881633 -8.36233 -5.43583 -83.3232 -4.90307 9.74117 4.7695 -0.656266 17.424 29.2385 -9.51518 -21.2881 -1.05266 -1.33455e-009 8.75224e-006 -1.47026e-008 -2.14277 14.4501 -0.0144697 -3.01567 0.491638 0.263159 36.2192 1.84858 0.326073 43.3633 -24.6793 16.4193 8.48347 39.7282 6.16781 -5.18061 9.70364 -0.363635 -45.408 3.55919 -3.33116 -22.5945 -15.1185 0.65804 -2.88335 32.6528 -16.8988 5.82328 9.61819 -0.917488 -1.26886 -6.49798 -6.18012 -7.49136 -12.4454 -4.55298 -1.59777 14.4976 -5.53733 8.21763 -0.0987229 -0.665813 0.0462048 0.00053089 0.662642 
105.908 99.9934 0.837641 -8.35044 -5.29614 -83.5674 -4.74045 9.68756 4.88317 -0.731452 17.4436 29.3366 -9.64507 -21.2423 -1.06492 -1.33455e-009 8.75224e-006 -1.47026e-008 -2.1618 14.2607 -0.00804044 -2.87483 0.390517 0.23538 36.4452 1.84858 0.310963 43.678 -25.6711 16.4588 8.83062 40.709 5.0986 -5.25727 9.70431 -0.458161 -45.233 3.54941 -3.33225 -22.4147 -17.1669 0.707174 -4.06904 34.9021 -14.8915 5.82328 9.61819 -0.917488 -1.36845 -6.12597 -5.93465 -7.10401 -12.6202 -3.83206 -1.80672 14.7079 -5.92558 8.43041 -0.750451 -0.636622 0.0462048 0.00053089 0.662642 
105.808 99.9573 0.718995 -8.28066 -5.26854 -83.7823 -4.67252 9.61667 4.94601 -0.755601 17.5649 29.4711 -9.9441 -21.2765 -1.10458 -1.33455e-009 8.75224e-006 -1.47026e-008 -2.28327 14.0432 0.00743669 -2.76751 0.226972 0.213923 36.5615 1.84858 0.300792 44.0357 -26.6929 16.4246 9.39973 41.1902 3.64182 -5.39374 9.69774 -0.40818 -45.1119 3.54158 -3.32656 -22.1841 -18.9257 1.00237 -5.01903 37.0901 -13.1849 5.82328 9.61819 -0.917488 -1.42679 -5.75067 -5.80187 -6.91793 -12.8578 -3.4222 -1.84242 15.0195 -5.9643 8.32172 -0.82837 -0.624635 0.0462048 0.00053089 0.662642 
105.607 99.9164 0.562574 -8.29891 -5.37925 -83.8133 -4.73782 9.76619 4.86875 -0.665744 17.5722 29.5636 -10.2809 -21.3084 -1.14892 -1.33455e-009 8.75224e-006 -1.47026e-008 -2.53841 13.8149 0.000198102 -2.48583 0.206146 0.132413 36.6076 1.84858 0.29456 44.1979 -27.253 16.1987 9.84279 41.4107 2.42729 -5.50082 9.69254 -0.438137 -45.1403 3.53444 -3.30914 -21.8814 -20.6765 1.34335 -5.87347 39.3106 -11.5646 5.82328 9.61819 -0.917488 -1.59062 -5.42873 -5.73833 -7.05981 -12.8605 -3.79014 -1.64361 15.1947 -5.53731 7.78321 -0.26625 -0.62642 0.0462048 0.00053089 0.662642 
105.298 99.9083 0.406337 -8.42693 -5.40528 -83.5973 -4.68692 10.1595 4.76685 -0.44185 17.4452 29.4171 -10.5796 -21.3893 -1.19328 -1.33455e-009 8.75224e-006 -1.47026e-008 -2.4066 13.526 -0.112117 -2.28815 0.389212 0.0103826 36.7014 1.84858 0.290391 44.1415 -27.6696 15.7699 10.0587 41.8959 1.54157 -5.62905 9.69303 -0.585387 -45.3138 3.54141 -3.29736 -21.474 -22.183 1.62405 -6.74804 41.1164 -9.99796 5.82328 9.61819 -0.917488 -1.74447 -5.17259 -5.70667 -7.21216 -12.6422 -4.57236 -1.30471 15.3936 -5.08659 6.88772 0.287619 -0.598478 0.0462048 0.00053089 0.662642 
